<svg xmlns="http://www.w3.org/2000/svg" viewBox="-503 2372.8 1658 641"><path fill="#FF9100" d="M-436 2683.8h145v29h-145v-29zm281 165h29v145h-29v-145zm-91.6 125.3l45.2-137.8 27.6 9-45.2 137.8-27.6-9zm-80-46l85.5-117.1 23.4 17.1-85.5 117.1-23.4-17.1zm-62-68.8l117.5-84.9 17 23.5-117.5 84.9-17-23.5zm-37.6-84.1l138-44.6 8.9 27.6-138 44.6-8.9-27.6zm270.2-371.4h29v145h-29v-145zm-62.8 9.7l45 137.8-27.6 9-45-137.8 27.6-9zm-83.8 37.7l85.2 117.3-23.5 17-85.2-117.3 23.5-17zm-68.9 62.4l117.5 85-17 23.5-117.5-85 17-23.5zm-45.7 80.2l138 44.6-8.9 27.6-138-44.6 8.9-27.6z"/><path d="M-85 2775.8h37.3l-9.3-168.5h-49.8l-18 56c-5.5 18.8-11.3 41-16 60.5h-.8c-3.8-19.8-9-40.8-14.3-60.3l-16.5-56.3H-223l-10.8 168.5h35.3l3-64c1.3-21 2-47 3-69.8h.5c4 22 9.8 46 15.3 65.8l18 65.3h29.8l20.5-65.8c6.5-19.8 13.5-43.8 18.8-65.3h.8c0 24.5.8 49 1.5 69.3l2.3 64.6zm169.7 0c-1.3-6.8-1.8-18-1.8-29.8v-42.5c0-28.8-13-52.8-53.8-52.8-22.3 0-39 6-47.5 10.8l7 24.5c8-5 21.3-9.3 33.8-9.3 18.8 0 22.3 9.3 22.3 15.8v1.8c-43.3-.3-71.8 15-71.8 46.8 0 19.5 14.8 37.5 39.5 37.5 14.5 0 27-5.3 35-15h.8l2.3 12.3h34.2v-.1zM46 2731.3c0 2.2-.2 4.4-.8 6.5-2.9 8.4-10.8 14.1-19.8 14-8.5 0-15-4.8-15-14.5 0-14.8 15.5-19.5 35.5-19.3v13.3zm154.2 13.5c-6.9 2.6-14.3 3.9-21.8 3.8-18.5 0-33.5-11.8-33.5-34.3-.3-20 12.8-34.3 32.8-34.3 10 0 16.8 1.8 21.3 3.8l6-28.3c-8-3-19-4.8-29-4.8-45.5 0-70 29.3-70 65 0 38.5 25.3 62.5 64.8 62.5 14.5 0 27.3-2.5 34-5.5l-4.6-27.9zm45.8 22.8c9 6 26.8 10.8 43 10.8 39.8 0 59-22.5 59-48.5 0-24.8-14.5-38.5-43-49.5-23.3-9-33.5-16.8-33.5-32.5 0-11.5 8.8-25.3 31.8-25.3 11.2 0 22.2 2.7 32 8l6-17.8c-7.5-4.3-20-8.3-37.3-8.3-32.8 0-54.5 19.5-54.5 45.8 0 23.8 17 38 44.5 47.8 22.8 8.8 31.8 17.8 31.8 33.5 0 17-13 28.8-35.3 28.8-13.7-.1-27.2-3.9-39-11l-5.5 18.2zm135.2-141.8v29h-18.7v16.8h18.8v66c0 14.3 2.3 25 8.5 31.5 5.3 6 13.5 9.3 23.8 9.3 8.5 0 15.3-1.3 19.5-3l-1-16.5c-4.2 1.1-8.5 1.6-12.8 1.5-12.3 0-16.5-8.5-16.5-23.5v-65.3h31.5v-16.8h-31.5V2620l-21.6 5.8zm164.8 150c-1.5-8.3-2-18.5-2-29v-45.3c0-24.3-9-49.5-46-49.5-15.2 0-29.7 4.3-39.7 10.8l5 14.5c9.5-5.9 20.4-9 31.5-9 24.7 0 27.5 18 27.5 28v2.5c-46.7-.3-72.7 15.8-72.7 45 0 17.5 12.5 34.8 37 34.8 17.2 0 30.2-8.5 37-18h.8l1.8 15.3H546v-.1zm-23.3-40.7c-.1 2.4-.5 4.7-1.3 7-3.5 10.3-13.5 20.3-29.2 20.3-11.3 0-20.8-6.8-20.8-21 0-23.5 27.2-27.8 51.2-27.3v21zM662 2598.3v72.3h-.5c-5.5-9.8-18-18.5-36.5-18.5-29.5 0-54.5 24.8-54.3 65 0 36.8 22.5 61.5 51.8 61.5 19.8 0 34.5-10.3 41.3-23.8h.5l1 21H685c-.8-8.3-1-20.5-1-31.3v-146.3h-22zm0 126.8c.1 3.2-.3 6.4-1 9.5-4 16.5-17.5 26.3-32.3 26.3-23.8 0-35.8-20.3-35.8-44.8 0-26.8 13.5-46.8 36.3-46.8 16.5 0 28.5 11.5 31.8 25.5.7 3 1 6.1 1 9.3v21zm80.5 50.7v-121h-22v121h22zm-11-168.7c-7.4-.2-13.6 5.6-13.8 13.1v.7c0 7.5 5.5 13.5 13.3 13.5 8.8 0 14.3-6 14-13.5 0-7.8-5.3-13.8-13.5-13.8zm148.7 47.7h-22v74.3c0 3.8-.7 7.6-2 11.3-4 9.8-14.3 20-29 20-20 0-27-15.5-27-38.5v-67h-22v70.8c0 42.5 22.8 53 41.8 53 16.4.3 31.7-8.3 40-22.5h.5l1.3 19.8h19.5c-.8-9.5-1-20.5-1-33v-88.2zm36.5 121h21.5v-73c-.1-3.7.5-7.3 1.8-10.8 3.5-11 13.5-22 27.3-22 16.8 0 25.3 14 25.3 33.3v72.5h21.5V2701c0-3.7.6-7.4 1.8-11 3.8-10.8 13.5-20 26-20 17.8 0 26.3 14 26.3 37.3v68.5h21.5v-71.3c0-42-23.8-52.5-39.8-52.5-11.5 0-19.5 3-26.8 8.5-5.6 4.2-10.2 9.6-13.5 15.8h-.5c-5.3-14.3-17.8-24.3-34.3-24.3-20 0-31.3 10.8-38 22.3h-.8l-1-19.5h-19.3c.8 10 1 20.3 1 32.8v88.2z"/></svg>