<svg xmlns="http://www.w3.org/2000/svg" width="198.786" height="62.669" viewBox="0 0 52.596 16.581"><g fill-rule="evenodd"><path d="M7.745 0C6.502 0 5.258.4 4.24 1.182a5.776 5.776 0 00-1.3 1.43c-.113.076-.358.228-.584.438a1.47 1.47 0 00-.245.4c-.076.21-.151.458-.189.782-.056.343-.056.648-.056.838-.02.02-.057.02-.076.039-.15.057-.301.133-.414.228-.132.115-.302.248-.453.496-.075.133-.132.267-.17.343-.018.02-.037.038-.056.057-.15.115-.264.21-.32.286a1.719 1.719 0 00-.245.534c-.019.076-.057.172-.113 1.01C0 8.597 0 9.283 0 9.436c0 .21.057.4.15.572.057.076.152.21.265.324l.132.133c.018.076.056.19.113.305.075.172.15.305.282.458.283.324.641.476.848.533.057.305.189.896.66 1.297.433.362 1.715 1.448 2.582 2.173.264.228.49.419.622.514.245.21.546.382.829.496.283.095.697.133.999.133v.02h.527v-.02c.32 0 .735-.038 1.018-.133.264-.114.584-.286.83-.496.112-.095.338-.286.621-.514a435.89 435.89 0 012.563-2.173c.471-.4.603-.992.66-1.297.226-.057.584-.21.866-.533.113-.153.208-.286.264-.458a1.57 1.57 0 00.113-.305c.038-.038.095-.076.151-.133.113-.115.207-.248.245-.324a1.44 1.44 0 00.17-.572c0-.153 0-.84-.038-1.373-.057-.838-.075-.934-.113-1.01a1.149 1.149 0 00-.245-.534 1.512 1.512 0 00-.301-.286.262.262 0 01-.076-.057c-.038-.076-.094-.21-.17-.343a1.943 1.943 0 00-.433-.496 2.236 2.236 0 00-.415-.228c-.037-.02-.075-.02-.094-.039 0-.19 0-.495-.056-.838a3.474 3.474 0 00-.17-.782c-.094-.21-.188-.343-.264-.4-.226-.21-.47-.362-.584-.439-.113-.21-.565-.857-1.3-1.43A5.763 5.763 0 007.745 0z" fill="#fefefe"/><path d="M22.896 7.42c0-.325-.17-.477-.773-.477-.604 0-1.133.324-1.208.381l-.718 4.881H17.48l.773-5.186-.603-.076.132-1.945h3.152l.113.4h.075s.698-.705 2.284-.705c1.53 0 2.303.59 2.303 1.906 0 .21-.02.42-.058.649l-.415 2.726c.02.19.115.248.152.248.13 0 .566-.019.566-.019l-.113 1.812s-1.19.343-2.322.343c-.849 0-1.227-.382-1.227-.916 0-.305.604-3.622.604-4.023zm4.261-2.414h3.52l-.758 4.914c.02.247.112.304.15.304.132 0 .568-.019.568-.019l-.113 1.81s-1.173.343-2.326.343c-.853 0-1.211-.362-1.211-.915 0-.076 0-.133.017-.21l.626-4.208-.606-.077zM37.163 7.42c0-.325-.17-.477-.755-.477-.606 0-1.136.324-1.21.381l-.719 4.881h-2.74l.794-5.186-.623-.076.15-1.945h3.157l.113.4h.075s.7-.705 2.289-.705c1.51 0 2.286.59 2.286 1.906 0 .21 0 .42-.057.649l-.416 2.726c.038.19.113.248.17.248.113 0 .568-.019.568-.019l-.115 1.812s-1.19.343-2.324.343c-.87 0-1.228-.382-1.228-.916 0-.305.585-3.622.585-4.023zm10.652 3.387s-.79 1.738-3.275 1.738c-2.05 0-3.577-1.089-3.577-3.248 0-2.77 2.072-4.604 4.443-4.604 1.639 0 2.937.917 2.937 2.369 0 1.739-1.373 2.426-4.726 2.484.095.764.716 1.012 1.336 1.012 1.018 0 1.546-.707 1.546-.707zM43.75 7.903c1.826-.02 2.201-.268 2.201-.745 0-.287-.225-.574-.845-.574-.566 0-1.093.268-1.356 1.319z" fill="#009ad7"/><path d="M7.285 8.961c.094-.21.188-.59-.076-.723-.34-.172-.85-.229-1.208-.21-.661.019-1.152.171-1.247.229-.094.057-.189.228.283.209.718 0 .643.21.718.438.113.362.397.419.944.419.283 0 .491-.133.586-.362zm.939 0c-.094-.21-.188-.59.075-.723.338-.172.844-.229 1.2-.21.657.019 1.164.171 1.239.229.094.057.206.228-.281.209-.713 0-.638.21-.713.438-.113.362-.394.419-.938.419-.282 0-.488-.133-.582-.362zm-1.417 2.103c-.152.114-.21.133-.095.285.095.114.246.076.379.114.114.038.398.304.493.38.076.058.133.077.17.077.058 0 .096-.02.171-.076.096-.077.38-.343.513-.38.113-.039.265 0 .36-.115.114-.152.057-.171-.095-.285-.17-.114-.322-.076-.398-.02-.17.115-.284.172-.342.21a.382.382 0 01-.208.057.382.382 0 01-.209-.057c-.057-.038-.17-.095-.341-.21-.076-.056-.228-.094-.398.02z" fill="#2d3a4c"/><path d="M14.721 8.35c-.018-.534-.075-.992-.075-.992s-.019-.19-.113-.324c-.094-.114-.32-.248-.415-.362v-.02c.075.477.15 1.087.188 1.735 0 .267.02.534.02.8-.02.058-.02.134-.038.153-.038.096-.114.134-.17.191-.057.038-.094.095-.151.152.019-.38.019-.82 0-1.296-.057-1.315-.32-2.306-.51-2.478-.037-.057-.112-.076-.17-.095a3.287 3.287 0 00-.508-.038c.207-.839 0-2.001-.17-2.154a3.183 3.183 0 00-.585-.4C11.156 1.773 9.572.782 7.761.782c-1.81 0-3.377.991-4.263 2.44a3.18 3.18 0 00-.585.4c-.15.153-.377 1.315-.17 2.154-.207 0-.377.019-.509.038-.038.02-.113.038-.17.095-.188.172-.452 1.163-.509 2.478-.019.477-.019.915 0 1.296-.056-.057-.094-.114-.15-.152-.057-.057-.133-.095-.17-.19-.02-.02-.02-.096-.02-.153 0-.267 0-.534.02-.8a10.81 10.81 0 01.188-1.735c-.019 0-.019.019-.019.019-.094.114-.32.248-.415.362-.094.134-.113.324-.113.324s-.056.458-.075.991c-.02.534-.02.991-.02.991s0 .21.076.324c.095.134.302.286.377.42.076.114.114.457.359.705.226.21.415.267.962.286v.19c0 .248.019.858.396 1.201.094.077 2.49 2.078 3.207 2.688.075.076.302.229.566.343.226.095.66.114 1.037.114.396 0 .811-.019 1.038-.114.282-.114.49-.267.565-.343.736-.61 3.113-2.611 3.207-2.688.377-.343.396-.953.396-1.2v-.191c.547-.02.755-.076.962-.286.264-.248.283-.591.359-.705.075-.134.301-.286.377-.42.076-.114.076-.324.076-.324s.018-.457-.02-.99zM3.31 3.907c.698-.934 3.698-1.144 3.83-.534.094.439-.227 2.726-2.66 2.745-1.622.02-1.453-1.83-1.17-2.21zm8.28 6.063c-.056.096-.377.4-.415.515-.037.114-.019.229-.019.229l-.018 1.43s.018.457-.133.571a373.32 373.32 0 01-2.244 1.887s-.132.114-.283.172c-.151.057-.717.057-.717.057s-.547 0-.717-.057c-.15-.058-.283-.172-.283-.172s-1.961-1.64-2.244-1.887c-.151-.114-.133-.572-.133-.572v-1.43s0-.114-.037-.228c-.038-.114-.34-.42-.415-.515a.842.842 0 01-.113-.438c0-.114.056-1.83.056-1.83s.057-.114.246-.229c.698-.419 3.64-.419 3.64-.419s2.961 0 3.66.42c.17.114.226.228.226.228s.056 1.716.056 1.83c0 .152-.018.324-.113.438zm-.547-3.85C8.61 6.1 8.29 3.813 8.383 3.374c.133-.61 3.15-.4 3.83.534.283.381.471 2.23-1.17 2.211z" fill="#2d3a4c"/><path d="M9.127 12.107c-.094 0-.302.174-.473.231a.912.912 0 01-.246.039H7.083c-.076 0-.152-.02-.246-.039-.152-.057-.379-.23-.473-.23-.095 0-.36.23-.322.327.056.096.227-.058.397.038.076.039.303.193.341.231a.742.742 0 00.246.116c.114.038.663.038.72.038.056 0 .605 0 .719-.038a.597.597 0 00.246-.116c.038-.038.265-.192.34-.23.19-.097.341.057.398-.04.057-.096-.227-.327-.322-.327z" fill="#2d3a4c"/><path d="M27.467 14.539a.236.236 0 00-.167-.058c-.226 0-.396.135-.396.617 0 .27.17.405.338.405.225 0 .338-.193.338-.193l.207.154s-.15.366-.62.366c-.433 0-.713-.289-.713-.713 0-.578.3-.945.75-.945.15 0 .263.058.338.116l.058-.097h.262l-.057.637h-.338zm.806-1.055h.62l-.283 1.85c0 .075.038.094.058.094.038 0 .13-.019.13-.019l-.017.302s-.226.057-.433.057c-.15 0-.205-.057-.205-.189v-.057l.262-1.717-.15-.019zm.807 1.633c0-.578.336-.945.936-.945.448 0 .69.232.69.656 0 .578-.372 1.002-.935 1.002-.448 0-.69-.289-.69-.713zm1.179-.309c0-.192-.095-.327-.28-.327-.28 0-.45.212-.45.674 0 .213.095.348.28.348.28 0 .45-.232.45-.695zm1.766-.573h.62l-.17 1.095v.02c0 .077.02.096.038.096.037 0 .132-.02.132-.02l-.02.308s-.205.058-.412.058c-.133 0-.188-.039-.188-.135h-.02s-.17.173-.508.173c-.32 0-.47-.173-.47-.461v-.135l.113-.672-.15-.02.017-.307h.62l-.13.922c-.02.02-.02.058-.02.077 0 .135.058.212.228.212.188 0 .32-.116.32-.116l.113-.768-.133-.02zm2.119-.751h.628l-.285 1.793c0 .038-.02.057-.02.076 0 .077.04.096.057.096.038 0 .133-.02.133-.02l-.018.306s-.21.057-.418.057c-.135 0-.192-.038-.21-.133 0 0-.152.171-.495.171-.36 0-.588-.305-.588-.686 0-.554.34-.954.836-.954.305 0 .417.095.417.095h.02l.076-.477-.153-.019zm-.115 1.85l.115-.725a.4.4 0 00-.265-.095c-.305 0-.476.172-.476.649 0 .21.096.324.303.324.173 0 .285-.115.323-.153zm3.054-.649c0-.114-.075-.152-.222-.152-.188 0-.318.095-.336.095l-.167 1.102h-.428l.165-1.178-.13-.019.02-.304h.558l.02.095s.148-.152.503-.152c.297 0 .465.114.465.38 0 .038 0 .076-.02.133l-.092.646c0 .076.017.095.055.095.037 0 .112-.02.112-.02v.305s-.223.057-.428.057c-.15 0-.205-.057-.205-.19 0-.076.13-.817.13-.893zm2.334.586c-.02.039-.02.058-.02.077 0 .077.04.097.058.097.037 0 .132-.02.132-.02l-.02.309s-.225.058-.415.058c-.15 0-.208-.058-.208-.154 0 0-.15.192-.49.192-.36 0-.585-.308-.585-.694 0-.578.358-.964.868-.964.283 0 .398.135.398.135h.017l.075-.077h.34zm-.453.039l.113-.714a.392.392 0 00-.265-.096c-.303 0-.49.173-.49.655 0 .213.112.328.32.328.17 0 .302-.135.322-.173zm1.939-1.075h.656c-.113.418-.376.931-.86 1.501h-.394l-.262-1.178-.205-.02.017-.303h.618l.188 1.045h.017c.133-.19.28-.456.393-.703l-.188-.038zm.861-.014h.62l-.17 1.089c0 .095.038.114.058.114.037 0 .13-.019.13-.019l-.018.305s-.225.058-.413.058c-.15 0-.225-.058-.225-.191v-.057l.15-.974-.15-.02zm.733-.515c0 .153-.095.286-.283.286-.15 0-.225-.076-.225-.21 0-.076.057-.267.283-.267.092 0 .225.038.225.191zm.243 2.302l.3-.039v.268a.9.9 0 00.245.038c.262 0 .43-.172.43-.497v-.076h-.018s-.15.114-.432.114c-.376 0-.58-.306-.58-.707 0-.554.355-.937.825-.937.338 0 .413.153.413.153h.017l.058-.095h.375l-.225 1.433c.017.02.017.058.017.077 0 .554-.43.841-.9.841-.393 0-.58-.115-.58-.115zm1.012-.612l.113-.765a.283.283 0 00-.263-.153c-.28 0-.45.153-.45.631 0 .249.095.382.3.382.17 0 .283-.076.3-.095zm2.389-.125v.077c0 .077.02.097.038.097.038 0 .133-.02.133-.02l-.02.309s-.206.058-.413.058c-.13 0-.188-.058-.188-.154h-.017s-.15.192-.488.192c-.358 0-.563-.308-.563-.694 0-.578.338-.964.843-.964.3 0 .395.135.395.135h.018l.075-.077h.358zm-.45.039l.113-.714c-.018-.019-.093-.096-.263-.096-.3 0-.468.173-.468.655 0 .213.093.328.3.328.188 0 .3-.135.318-.173zm.981-1.049l.19-.018.15-.509h.375l-.075.509h.375l-.037.32h-.395l-.093.64c-.02.037-.02.075-.02.094 0 .094.038.132.133.132.112 0 .205-.019.205-.019l-.018.282s-.112.076-.375.076c-.265 0-.395-.076-.395-.32v-.132l.112-.753h-.15zm1.203.856c0-.578.343-.945.95-.945.458 0 .706.232.706.656 0 .578-.38 1.002-.953 1.002-.458 0-.703-.289-.703-.713zm1.198-.309c0-.192-.095-.327-.285-.327-.285 0-.458.212-.458.674 0 .213.095.348.286.348.287 0 .457-.232.457-.695zm1.671-.292h-.017a.355.355 0 00-.305.19l-.153 1.03h-.455l.19-1.182-.19-.02.017-.305h.57l.02.172s.133-.229.438-.229a.66.66 0 01.268.057l-.057.573h-.306zm1.509.042a.383.383 0 00-.25-.097c-.115 0-.19.058-.19.155 0 .231.687.192.687.617 0 .327-.21.597-.803.597-.287 0-.477-.077-.477-.077l.02-.463.285-.019v.212c.057.02.135.039.23.039.19 0 .268-.097.268-.212 0-.212-.67-.193-.67-.656 0-.328.267-.482.612-.482.133 0 .268.058.363.116l.037-.097h.23l-.057.502h-.268z" fill="#009ad7"/></g></svg>